<?xml version="1.0" encoding="UTF-8" standalone="no"?>
<!DOCTYPE svg PUBLIC "-//W3C//DTD SVG 1.1//EN" "http://www.w3.org/Graphics/SVG/1.1/DTD/svg11.dtd">
<svg width="100%" height="100%" viewBox="0 0 2000 2000" version="1.1" xmlns="http://www.w3.org/2000/svg" xmlns:xlink="http://www.w3.org/1999/xlink" xml:space="preserve" xmlns:serif="http://www.serif.com/" style="fill-rule:evenodd;clip-rule:evenodd;stroke-linecap:round;stroke-linejoin:round;stroke-miterlimit:1;">
    <path d="M66.474,1124.968C61.043,1084.079 58.24,1042.364 58.24,1000C58.24,480.229 480.229,58.24 1000,58.24C1519.771,58.24 1941.76,480.229 1941.76,1000C1941.76,1146.445 1908.262,1285.127 1848.516,1408.796C1790.628,1432.573 1725.412,1379.867 1640.222,1378.021C1586.577,1376.859 1561.361,1403.176 1489.558,1402.333C1447.083,1401.834 1398.797,1386.516 1356.411,1383.72C1301.701,1380.111 1220.319,1395.462 1153.526,1384.86C907.882,1345.867 419.452,1169.085 66.474,1124.968Z" style="fill:white;"/>
    <g transform="matrix(1.008763,0,0,1,-0.510375,0)">
        <path d="M66.474,1124.968C61.043,1084.079 58.24,1074.028 58.24,1074.028L1933.508,1074C1933.508,1074 1908.262,1285.127 1848.516,1408.796C1790.628,1432.573 1725.412,1379.867 1640.222,1378.021C1586.577,1376.859 1561.361,1403.176 1489.558,1402.333C1447.083,1401.834 1398.797,1386.516 1356.411,1383.72C1301.701,1380.111 1220.319,1395.462 1153.526,1384.86C907.882,1345.867 419.452,1169.085 66.474,1124.968Z" style="fill:rgb(9,57,95);"/>
    </g>
    <g>
        <g>
            <g>
                <path d="M1848.214,1409.422C1695.782,1724.35 1373.08,1941.76 1000,1941.76C848.867,1941.76 706.001,1906.083 579.373,1842.698C980.467,1700.551 1382.482,1561.666 1453.434,1523.933C1497.039,1500.744 1528.715,1451.953 1576.38,1444.185C1630.977,1435.288 1810.886,1426.425 1848.214,1409.422ZM1435.607,1715.611C1425.358,1690.511 1391.041,1653.312 1356.198,1655.829C1292.169,1660.454 1247.252,1733.347 1267.53,1736.041C1286.601,1756.253 1362.726,1755.965 1405.187,1748.58C1402.536,1754.875 1402.751,1759.462 1406.583,1759.993C1423.856,1779.064 1513.849,1770.915 1513.849,1760.59C1526.504,1754.857 1495.417,1703.82 1463.652,1706.21C1453.388,1706.982 1443.887,1710.594 1435.607,1715.611ZM1589.824,1578.002C1600.209,1590.426 1654.315,1585.117 1654.315,1578.391C1661.923,1574.657 1643.233,1541.409 1624.135,1542.966C1599.359,1544.986 1581.977,1576.825 1589.824,1578.002Z" style="fill:rgb(172,149,118);"/>
                <path d="M58.24,1123.96C411.818,1166.319 905.966,1345.563 1153.526,1384.86C1220.319,1395.462 1301.701,1380.111 1356.411,1383.72C1398.797,1386.516 1447.083,1401.834 1489.558,1402.333C1561.361,1403.176 1586.577,1376.859 1640.222,1378.021C1687.289,1379.041 1728.258,1395.585 1765.264,1406.179C1796.694,1415.177 1825.264,1419.882 1852.281,1407.136C1826.915,1425.648 1633.373,1434.898 1576.38,1444.185C1528.715,1451.953 1491.273,1500.493 1447.669,1523.682C1379.317,1560.032 565.513,1843.953 565.513,1843.953C535.086,1948.273 16.132,1460.14 58.24,1123.96Z" style="fill:rgb(231,209,162);stroke:black;stroke-width:16.67px;"/>
                <g transform="matrix(1,0,0,1,-16.918959,8.904715)">
                    <path d="M1638.189,1460.615C1610.814,1458.429 1610.789,1458.851 1583.38,1457.141C1560.94,1455.741 1558.155,1455.267 1546.585,1454.24C1529.484,1452.722 1518.544,1450.618 1517.784,1450.538C1515.108,1450.255 1505.044,1449.775 1480.655,1445.61C1437.477,1438.234 1401.821,1424.51 1362.533,1421.962C1343.886,1420.753 1281.867,1420.68 1249.97,1420.302C1246.454,1420.26 1216.64,1419.961 1190.191,1419.097C1181.376,1418.809 1168.256,1415.885 1150.066,1411.054C1118.504,1402.672 1062.669,1384.897 1017.893,1369.424C974.585,1354.457 947.938,1344.586 939.063,1341.15C937.841,1340.677 934.292,1339.48 934.14,1339.385C933.436,1338.944 932.636,1338.626 932.031,1338.056C930.824,1336.918 930.674,1336.266 930.631,1336.077C930.087,1333.703 931.014,1333.623 930.47,1331.249L932.995,1332.201L940.414,1315.552L936.704,1332.62L939.046,1327.731C941.709,1328.683 941.685,1328.765 950.768,1331.301C962.655,1334.621 994.243,1343.186 1039.073,1354.326C1043.313,1355.379 1163.624,1386.23 1191.104,1385.919L1190.989,1385.918C1247.424,1384.917 1278.429,1382.851 1330.828,1381.531C1361.164,1380.766 1365.791,1381.06 1372.62,1381.469C1414.834,1383.993 1449.365,1396.275 1493.459,1401.17C1498.141,1401.689 1507.157,1402.178 1508.35,1402.242L1508.27,1402.235C1509.216,1402.277 1516.81,1402.612 1520.104,1402.567C1520.901,1402.557 1526.575,1401.88 1527.137,1401.813C1532.187,1401.211 1542.786,1399.752 1550.528,1398.067C1569.321,1393.977 1581.275,1390.221 1610.278,1383.511C1623.041,1380.559 1623.975,1380.426 1632.583,1378.566C1632.584,1378.566 1648.806,1375.772 1650.925,1375.592C1651.847,1375.514 1662.202,1374.636 1662.452,1374.66C1662.895,1374.701 1674.792,1376.417 1682.207,1377.605C1685.716,1378.167 1685.711,1378.175 1689.217,1378.758C1690.263,1378.931 1706.766,1382.931 1719.525,1386.329C1730.322,1389.204 1730.309,1389.242 1740.977,1392.562C1747.857,1394.702 1763.617,1399.649 1786.791,1407.716C1786.948,1407.771 1788.681,1408.374 1788.756,1408.412C1790.256,1409.18 1791.858,1409.777 1793.256,1410.72C1793.854,1411.123 1797.58,1413.637 1799.216,1417.486C1799.331,1417.758 1800.239,1419.894 1799.932,1421.117C1799.512,1422.787 1799.393,1424.564 1798.668,1426.126C1798.365,1426.78 1796.494,1430.813 1791.902,1432.086C1791.485,1432.202 1791.421,1431.371 1786.497,1432.461C1782,1433.457 1757.886,1438.611 1729.516,1446.064C1722.635,1447.872 1715.468,1449.242 1691.44,1455.828C1688.653,1456.592 1686.449,1456.844 1673.661,1459.696C1669.189,1460.693 1665.686,1461.515 1665.658,1461.517C1665.481,1461.532 1663.896,1461.476 1655.179,1461.532C1653.818,1461.541 1653.824,1461.412 1638.189,1460.62L1638.189,1460.615Z" style="fill:white;"/>
                </g>
                <g>
                    <path d="M312.646,1210.961L293.646,1206.021C291.156,1205.378 285.107,1203.695 266.983,1198.913C253.339,1195.314 242.348,1192.077 198.769,1181.084C183.084,1177.127 130.521,1163.579 63.209,1149.772C62.706,1149.669 59.84,1149.081 57.828,1146.264C57.213,1145.403 56.741,1144.414 56.493,1143.387C56.375,1142.898 55.69,1140.069 57.526,1137.192C59.319,1134.382 62.149,1133.666 62.636,1133.543C64.806,1132.994 64.837,1133.189 67.055,1133.475C124.375,1140.881 171.648,1149.118 203.457,1154.911C224.269,1158.702 254.145,1164.778 258.545,1165.673C267.849,1167.565 273.854,1168.757 297.436,1173.964C302.025,1174.977 305.229,1175.735 320.531,1179.364C317.305,1192.495 317.287,1192.488 312.646,1210.961Z" style="fill:white;"/>
                    <path d="M291.293,1188.026C293.439,1187.571 317.895,1182.387 318.135,1182.409C319.821,1182.562 321.567,1182.395 323.19,1182.871C328.21,1184.34 330.364,1188.242 330.738,1188.92C330.746,1188.935 332.292,1193.764 332.291,1193.772C332.131,1195.39 332.281,1197.07 331.807,1198.624C330.322,1203.5 326.426,1205.781 325.759,1206.172C324.286,1207.034 322.625,1207.606 320.948,1207.926C320.483,1208.014 253.666,1208.646 212.364,1211.599C211.308,1211.674 211.268,1211.662 210.406,1211.047C210.391,1211.036 209.361,1209.457 209.363,1209.448C209.517,1208.837 209.467,1208.13 209.833,1207.617C210.225,1207.068 210.899,1206.778 211.495,1206.462C211.741,1206.331 220.624,1204.098 221.42,1203.898C226.979,1202.501 248.38,1197.122 291.293,1188.026Z" style="fill:white;"/>
                </g>
                <path d="M1520.105,1470.846C1553.127,1439.984 1655.239,1435.818 1795.717,1421.059" style="fill:none;stroke:black;stroke-width:16.67px;"/>
            </g>
            <g>
                <path d="M1562.508,1490.91C1509.82,1527.174 1479.481,1553.516 1427.065,1592.364C1408.722,1605.959 1402.137,1610.418 1399.921,1611.918C1361.776,1637.746 1335.101,1653.209 1329.572,1656.445C1293.774,1677.402 1268.892,1690.398 1244.246,1702.923C1243.927,1703.086 1191.73,1729.807 1130.788,1756.724C1101.45,1769.682 1053.141,1790.62 988.917,1815.947C988.286,1816.195 988.256,1816.194 987.625,1815.95C987.609,1815.944 986.706,1815.095 986.706,1815.086C986.699,1814.672 986.544,1814.23 986.693,1813.843C986.847,1813.445 987.204,1813.14 987.553,1812.895C987.955,1812.614 1048.141,1783.396 1110.199,1750.52C1113.721,1748.654 1130.365,1739.837 1154.079,1726.921C1212.94,1694.861 1251.043,1671.48 1279.453,1653.683C1286.005,1649.578 1307.187,1636.388 1341.148,1613.08C1365.639,1596.273 1381.204,1584.445 1385.555,1581.339C1444.965,1538.93 1485.379,1503.366 1543.736,1463.365C1576.7,1440.769 1645.165,1442.688 1692.183,1437.043C1700.9,1435.996 1700.863,1435.739 1739.336,1429.961C1774.27,1424.714 1819.087,1418.11 1835.815,1414.951C1836.432,1414.58 1837.071,1414.25 1837.728,1413.969C1838.467,1413.653 1842.058,1412.117 1847.707,1412.736C1852.268,1413.236 1855.136,1415.271 1855.502,1415.49C1856.137,1415.871 1856.834,1416.461 1856.944,1416.554C1859.586,1418.79 1860.851,1421.175 1861.098,1421.639C1861.603,1422.591 1864.545,1428.133 1862.081,1435.076C1861.925,1435.516 1861.127,1437.765 1859.205,1440.144C1856.239,1443.815 1851.989,1445.294 1851.263,1445.546C1845.267,1447.633 1822.159,1451.258 1763.257,1460.082C1735.797,1464.195 1722.999,1466.104 1706.554,1468.702C1664.299,1475.38 1594.521,1473.55 1565.655,1488.999C1564.244,1489.754 1562.753,1490.747 1562.508,1490.91Z" style="fill:rgb(231,209,162);"/>
                <path d="M1084.882,1765.622C999.667,1811.256 918.787,1851.957 849.167,1886.356C848.887,1886.494 847.284,1887.286 845.281,1886.615C844.664,1886.409 844.074,1886.082 843.583,1885.657C841.971,1884.265 841.856,1882.466 841.836,1882.153C841.808,1881.704 841.632,1878.945 844.619,1877.261C847.371,1875.71 972.324,1813.788 1098.404,1744.339C1304.355,1630.892 1401.018,1559.64 1453.407,1511.459C1455.755,1509.3 1458.524,1509.422 1458.999,1509.443C1459.992,1509.487 1460.998,1509.719 1461.899,1510.138C1462.337,1510.341 1464.863,1511.512 1465.974,1514.587C1466.133,1515.028 1467.05,1517.567 1465.716,1520.44C1465.285,1521.368 1464.574,1522.144 1463.911,1522.924C1463.86,1522.984 1458.02,1528.265 1452.916,1532.669C1407.926,1571.492 1314.742,1642.529 1084.882,1765.622Z"/>
            </g>
            <g>
                <g transform="matrix(1.553682,0,0,1.491422,-917.852486,-888.85035)">
                    <path d="M1406.583,1759.993C1423.856,1779.064 1513.849,1770.915 1513.849,1760.59C1526.504,1754.857 1495.417,1703.82 1463.652,1706.21C1422.441,1709.311 1393.531,1758.186 1406.583,1759.993Z" style="fill:rgb(9,58,91);stroke:black;stroke-width:13.68px;"/>
                </g>
                <g transform="matrix(1.183557,0,0,1.086852,-1314.813509,-311.395264)">
                    <path d="M1406.583,1759.993C1423.856,1779.064 1513.849,1770.915 1513.849,1760.59C1526.504,1754.857 1495.417,1703.82 1463.652,1706.21C1422.441,1709.311 1393.531,1758.186 1406.583,1759.993Z" style="fill:rgb(9,58,91);stroke:black;stroke-width:18.34px;"/>
                </g>
                <g transform="matrix(0.797339,0,0,0.941021,-546.652045,50.204821)">
                    <path d="M1406.583,1759.993C1423.856,1779.064 1513.849,1770.915 1513.849,1760.59C1526.504,1754.857 1495.417,1703.82 1463.652,1706.21C1422.441,1709.311 1393.531,1758.186 1406.583,1759.993Z" style="fill:rgb(9,58,91);stroke:black;stroke-width:23.89px;"/>
                </g>
                <path d="M1406.583,1759.993C1423.856,1779.064 1513.849,1770.915 1513.849,1760.59C1526.504,1754.857 1495.417,1703.82 1463.652,1706.21C1422.441,1709.311 1393.531,1758.186 1406.583,1759.993Z" style="fill:rgb(164,164,162);stroke:black;stroke-width:20.83px;"/>
                <g transform="matrix(1,0,0,1,-910.665765,-32.36113)">
                    <path d="M1406.583,1759.993C1423.856,1779.064 1513.849,1770.915 1513.849,1760.59C1526.504,1754.857 1495.417,1703.82 1463.652,1706.21C1422.441,1709.311 1393.531,1758.186 1406.583,1759.993Z" style="fill:rgb(164,164,162);stroke:black;stroke-width:20.83px;"/>
                </g>
                <g transform="matrix(0.601217,0,0,0.651433,744.162856,431.484364)">
                    <path d="M1406.583,1759.993C1423.856,1779.064 1513.849,1770.915 1513.849,1760.59C1526.504,1754.857 1495.417,1703.82 1463.652,1706.21C1422.441,1709.311 1393.531,1758.186 1406.583,1759.993Z" style="fill:rgb(164,164,162);stroke:black;stroke-width:26.59px;"/>
                </g>
            </g>
            <path d="M626.499,1600.14L923.891,1604.717C923.891,1604.717 859.541,1581.373 850.126,1565.5C840.711,1549.627 866.856,1520.915 867.4,1509.476C867.699,1503.203 859.054,1494.146 853.394,1496.871C816.727,1514.526 656.912,1602.102 626.499,1600.14Z" style="fill:rgb(172,149,118);stroke:rgb(172,149,118);stroke-width:16.67px;"/>
        </g>
        <g>
            <g transform="matrix(1.877926,0,0,1.874791,-1454.849498,-151.869783)">
                <path d="M1307.213,81.006C1601.109,81.006 1839.715,320.011 1839.715,614.399C1839.715,908.786 1601.109,1147.792 1307.213,1147.792C1013.317,1147.792 774.711,908.786 774.711,614.399C774.711,320.011 1013.317,81.006 1307.213,81.006ZM1307.213,91.674C1595.231,91.674 1829.065,325.899 1829.065,614.399C1829.065,902.899 1595.231,1137.124 1307.213,1137.124C1019.195,1137.124 785.361,902.899 785.361,614.399C785.361,325.899 1019.195,91.674 1307.213,91.674Z"/>
            </g>
            <g transform="matrix(1.842246,0,0,1.83917,-1408.207358,-129.984257)">
                <path d="M1307.213,81.006C1601.109,81.006 1839.715,320.011 1839.715,614.399C1839.715,908.786 1601.109,1147.792 1307.213,1147.792C1013.317,1147.792 774.711,908.786 774.711,614.399C774.711,320.011 1013.317,81.006 1307.213,81.006ZM1307.213,102.342C1589.353,102.342 1818.415,331.787 1818.415,614.399C1818.415,897.011 1589.353,1126.456 1307.213,1126.456C1025.073,1126.456 796.011,897.011 796.011,614.399C796.011,331.787 1025.073,102.342 1307.213,102.342Z" style="fill:rgb(9,58,91);"/>
            </g>
            <path d="M63.943,1074.028L1933.508,1074" style="fill:none;stroke:black;stroke-width:20.83px;"/>
        </g>
        <path d="M614.462,1404.136L646.22,1404.146" style="fill:none;stroke:black;stroke-width:16.67px;"/>
        <path d="M1341.576,1485.542L1365.778,1485.542" style="fill:none;stroke:black;stroke-width:16.67px;"/>
        <path d="M1000,1448.728L1075.053,1449.027" style="fill:none;stroke:black;stroke-width:16.67px;"/>
        <path d="M190.328,1308.893L216.024,1308.594" style="fill:none;stroke:black;stroke-width:16.67px;"/>
    </g>
    <path d="M391.962,1374.311C395.448,1368.957 330.037,1359.893 300.383,1360.185C268.823,1360.496 201.159,1376.868 197.673,1382.221C194.187,1387.574 251.997,1392.576 279.467,1392.305C311.027,1391.994 388.476,1379.664 391.962,1374.311Z" style="fill:rgb(172,149,118);stroke:rgb(172,149,118);stroke-width:16.67px;"/>
    <path d="M613.193,1485.895C632.92,1496.848 576.195,1501.38 549.233,1500.956C509.66,1500.334 437.615,1488.896 392.096,1487.417C353.426,1486.161 271.015,1497.858 276.118,1492.086C281.22,1486.314 364.218,1453.727 422.246,1456.987C478.836,1460.167 603.778,1480.668 613.193,1485.895Z" style="fill:rgb(172,149,118);stroke:rgb(172,149,118);stroke-width:16.67px;"/>
    <path d="M622.986,1600.14C702.154,1593.347 781.166,1489.51 869.548,1485.612C942.053,1482.414 1019.51,1588.885 1131.429,1597.951" style="fill:none;stroke:black;stroke-width:16.67px;"/>
    <path d="M350.162,1464.457C350.162,1464.457 397.506,1452.691 421.651,1452.786C479.67,1453.013 579.848,1482.959 622.986,1485.542C653.045,1487.341 679.321,1481.688 679.321,1481.688" style="fill:none;stroke:black;stroke-width:16.67px;"/>
    <path d="M1088.924,1509.349C1129.48,1507.994 1168.342,1493.896 1197.684,1493.812C1226.365,1493.729 1259.355,1502.656 1259.355,1502.656" style="fill:none;stroke:black;stroke-width:16.67px;"/>
    <g>
        <g>
            <path d="M1538.585,587.714L1540.421,548.978C1545.971,532.958 1553.489,527.791 1564.698,528.25C1575.591,528.696 1585.882,535.453 1587.481,548.978L1585.274,591.827L1538.585,587.714Z" style="fill:rgb(163,163,161);"/>
            <path d="M1665.914,958.511L1687.576,717.236L1764.889,687.357L1769.336,608.042L1770.865,608.177L1823.068,625.421L1818.405,702.346L1773.479,729.935L1772.359,866.209L1831.505,880.618L1829.129,984.282L1665.914,958.511Z" style="fill:rgb(9,57,95);"/>
            <path d="M1666.239,598.96L1672.806,548.698L1717.517,551.498L1770.623,576.578L1769.371,607.43L1769.336,608.042L1666.239,598.96Z" style="fill:rgb(231,42,46);"/>
            <path d="M1672.806,548.698L1679.957,493.963C1691.178,491.614 1706.355,492.623 1721.564,494.262C1740.125,503.793 1756.985,517.15 1772.359,533.852L1770.623,576.578L1717.517,551.498L1672.806,548.698Z" style="fill:rgb(9,57,95);"/>
            <path d="M1385.049,574.189L1769.336,608.042L1764.889,687.357L1687.576,717.236L1669.063,923.429L1653.668,1041.67L1322.67,974.193L1385.049,574.189Z" style="fill:rgb(163,163,161);stroke:rgb(9,57,95);stroke-width:1px;stroke-linecap:butt;stroke-miterlimit:2;"/>
        </g>
        <g>
            <g transform="matrix(0.996435,0.084359,-0.084359,0.996435,59.316773,-124.181018)">
                <rect x="1435.551" y="613.165" width="66.631" height="31.672" style="fill:rgb(9,57,95);"/>
            </g>
            <g transform="matrix(0.996435,0.084359,-0.084359,0.996435,136.428123,-117.652743)">
                <rect x="1435.551" y="613.165" width="66.631" height="31.672" style="fill:rgb(9,57,95);"/>
            </g>
            <g transform="matrix(0.996435,0.084359,-0.084359,0.996435,214.134927,-111.074056)">
                <rect x="1435.551" y="613.165" width="66.631" height="31.672" style="fill:rgb(9,57,95);"/>
            </g>
            <g transform="matrix(0.996435,0.084359,-0.084359,0.996435,295.11673,-104.218107)">
                <rect x="1435.551" y="613.165" width="66.631" height="31.672" style="fill:rgb(9,57,95);"/>
            </g>
            <g transform="matrix(0.3128,0.026267,-0.069468,0.827277,1095.22209,147.194329)">
                <rect x="1435.551" y="613.165" width="66.631" height="31.672" style="fill:rgb(9,57,95);"/>
            </g>
            <g transform="matrix(0.3128,0.026267,-0.069468,0.827277,1158.343896,152.494815)">
                <rect x="1435.551" y="613.165" width="66.631" height="31.672" style="fill:rgb(9,57,95);"/>
            </g>
            <g transform="matrix(0.3128,0.026267,-0.069468,0.827277,1222.358935,157.870308)">
                <rect x="1435.551" y="613.165" width="66.631" height="31.672" style="fill:rgb(9,57,95);"/>
            </g>
        </g>
        <g>
            <path d="M1665.914,958.511L1829.129,984.282L1831.505,880.618L1772.359,866.209L1773.479,729.935L1818.405,702.346L1823.068,625.421L1770.865,608.177L1385.049,574.189" style="fill:none;stroke:black;stroke-width:16.67px;stroke-linecap:butt;"/>
            <path d="M1665.914,958.511L1687.576,717.236L1764.889,687.357L1769.371,607.43" style="fill:none;stroke:black;stroke-width:16.67px;stroke-linecap:butt;"/>
            <path d="M1696.166,718.356L1769.371,731.951" style="fill:none;stroke:black;stroke-width:16.67px;stroke-linecap:butt;"/>
            <path d="M1765.262,688.104L1813.443,701.699" style="fill:none;stroke:black;stroke-width:16.67px;stroke-linecap:butt;"/>
            <path d="M1803.732,872.608L1805.599,819.946" style="fill:none;stroke:black;stroke-width:16.67px;"/>
            <path d="M1665.914,601.454L1679.957,493.963C1691.178,491.614 1706.355,492.623 1721.564,494.262C1740.125,503.793 1756.985,517.15 1772.359,533.852L1769.371,607.43" style="fill:none;stroke:black;stroke-width:16.67px;stroke-linecap:butt;"/>
            <path d="M1633.046,592.49L1650.974,403.877" style="fill:none;stroke:black;stroke-width:16.67px;"/>
            <path d="M1606.902,452.058L1646.152,454.604" style="fill:none;stroke:black;stroke-width:16.67px;"/>
            <path d="M1538.553,588.382L1540.421,548.978C1545.971,532.958 1553.489,527.791 1564.698,528.25C1575.591,528.696 1585.882,535.453 1587.481,548.978L1585.24,592.49" style="fill:none;stroke:black;stroke-width:16.67px;stroke-linecap:butt;"/>
            <path d="M1385.049,574.189L1322.67,974.193L1653.668,1041.67L1669.17,922.612" style="fill:none;stroke:black;stroke-width:16.67px;stroke-linecap:butt;"/>
            <g transform="matrix(1.052174,0,0,1.015151,-91.31269,-4.943163)">
                <path d="M1675.562,545.309L1719.136,548.137L1772.857,574.432" style="fill:none;stroke:black;stroke-width:16.12px;stroke-linecap:butt;"/>
            </g>
            <g>
                <g transform="matrix(0.982219,0.187741,-0.187741,0.982219,198.189632,-301.112139)">
                    <rect x="1704.039" y="883.905" width="16.675" height="24.324"/>
                </g>
                <g transform="matrix(0.982219,0.187741,-0.187741,0.982219,243.16122,-292.516271)">
                    <rect x="1704.039" y="883.905" width="16.675" height="24.324"/>
                </g>
                <g transform="matrix(0.982219,0.187741,-0.187741,0.982219,284.377386,-284.638215)">
                    <rect x="1704.039" y="883.905" width="16.675" height="24.324"/>
                </g>
            </g>
        </g>
    </g>
    <g transform="matrix(0.54459,0,0,0.54459,843.787496,502.000303)">
        <g>
            <g transform="matrix(1.024956,0,-0.058007,1.106832,-233.99317,-63.396005)">
                <ellipse cx="1354.745" cy="736.266" rx="148.448" ry="293.613" style="fill:rgb(9,59,96);"/>
                <path d="M1354.745,442.654C1436.676,442.654 1503.193,574.217 1503.193,736.266C1503.193,898.316 1436.676,1029.879 1354.745,1029.879C1272.815,1029.879 1206.297,898.316 1206.297,736.266C1206.297,574.217 1272.815,442.654 1354.745,442.654ZM1355.723,459.935C1328.1,459.935 1303.716,479.126 1283.007,509.159C1247.559,560.566 1224.985,643.651 1224.985,737.171C1224.985,830.402 1247.365,913.21 1282.703,964.459C1302.931,993.795 1326.785,1012.598 1353.767,1012.598C1381.39,1012.598 1405.775,993.407 1426.483,963.374C1461.931,911.967 1484.506,828.882 1484.506,735.362C1484.506,642.131 1462.126,559.323 1426.787,508.074C1406.559,478.738 1382.705,459.935 1355.723,459.935Z"/>
            </g>
        </g>
        <g>
            <g transform="matrix(0.984669,0,-0.017639,1.010559,-185.014575,24.811781)">
                <ellipse cx="1354.745" cy="736.266" rx="148.448" ry="293.613" style="fill:rgb(53,171,87);"/>
                <path d="M1354.745,442.654C1436.676,442.654 1503.193,574.217 1503.193,736.266C1503.193,898.316 1436.676,1029.879 1354.745,1029.879C1272.815,1029.879 1206.297,898.316 1206.297,736.266C1206.297,574.217 1272.815,442.654 1354.745,442.654ZM1355.084,461.581C1327.863,461.581 1303.691,480.482 1283.284,510.077C1248.071,561.145 1225.726,643.697 1225.726,736.597C1225.726,829.384 1247.996,911.829 1283.166,962.833C1303.409,992.19 1327.405,1010.952 1354.406,1010.952C1381.627,1010.952 1405.799,992.051 1426.207,962.455C1461.42,911.388 1483.765,828.836 1483.765,735.936C1483.765,643.149 1461.494,560.704 1426.324,509.7C1406.081,480.343 1382.086,461.581 1355.084,461.581Z"/>
            </g>
            <g transform="matrix(0.984669,0,-0.017639,1.010559,-158.571171,25.811781)">
                <ellipse cx="1354.745" cy="736.266" rx="148.448" ry="293.613" style="fill:rgb(53,171,87);"/>
                <path d="M1354.745,442.654C1436.676,442.654 1503.193,574.217 1503.193,736.266C1503.193,898.316 1436.676,1029.879 1354.745,1029.879C1272.815,1029.879 1206.297,898.316 1206.297,736.266C1206.297,574.217 1272.815,442.654 1354.745,442.654ZM1355.084,461.581C1327.863,461.581 1303.691,480.482 1283.284,510.077C1248.071,561.145 1225.726,643.697 1225.726,736.597C1225.726,829.384 1247.996,911.829 1283.166,962.833C1303.409,992.19 1327.405,1010.952 1354.406,1010.952C1381.627,1010.952 1405.799,992.051 1426.207,962.455C1461.42,911.388 1483.765,828.836 1483.765,735.936C1483.765,643.149 1461.494,560.704 1426.324,509.7C1406.081,480.343 1382.086,461.581 1355.084,461.581Z"/>
            </g>
            <g transform="matrix(0.984669,0,-0.017639,1.010559,-128.571171,27.811781)">
                <ellipse cx="1354.745" cy="736.266" rx="148.448" ry="293.613" style="fill:rgb(53,171,87);"/>
                <path d="M1354.745,442.654C1436.676,442.654 1503.193,574.217 1503.193,736.266C1503.193,898.316 1436.676,1029.879 1354.745,1029.879C1272.815,1029.879 1206.297,898.316 1206.297,736.266C1206.297,574.217 1272.815,442.654 1354.745,442.654ZM1355.084,461.581C1327.863,461.581 1303.691,480.482 1283.284,510.077C1248.071,561.145 1225.726,643.697 1225.726,736.597C1225.726,829.384 1247.996,911.829 1283.166,962.833C1303.409,992.19 1327.405,1010.952 1354.406,1010.952C1381.627,1010.952 1405.799,992.051 1426.207,962.455C1461.42,911.388 1483.765,828.836 1483.765,735.936C1483.765,643.149 1461.494,560.704 1426.324,509.7C1406.081,480.343 1382.086,461.581 1355.084,461.581Z"/>
            </g>
            <g transform="matrix(0.984669,0,-0.017639,1.010559,-101.571171,29.811781)">
                <ellipse cx="1354.745" cy="736.266" rx="148.448" ry="293.613" style="fill:rgb(53,171,87);"/>
                <path d="M1354.745,442.654C1436.676,442.654 1503.193,574.217 1503.193,736.266C1503.193,898.316 1436.676,1029.879 1354.745,1029.879C1272.815,1029.879 1206.297,898.316 1206.297,736.266C1206.297,574.217 1272.815,442.654 1354.745,442.654ZM1355.084,461.581C1327.863,461.581 1303.691,480.482 1283.284,510.077C1248.071,561.145 1225.726,643.697 1225.726,736.597C1225.726,829.384 1247.996,911.829 1283.166,962.833C1303.409,992.19 1327.405,1010.952 1354.406,1010.952C1381.627,1010.952 1405.799,992.051 1426.207,962.455C1461.42,911.388 1483.765,828.836 1483.765,735.936C1483.765,643.149 1461.494,560.704 1426.324,509.7C1406.081,480.343 1382.086,461.581 1355.084,461.581Z"/>
            </g>
            <g transform="matrix(0.984669,0,-0.017639,1.010559,-70.571171,30.811781)">
                <ellipse cx="1354.745" cy="736.266" rx="148.448" ry="293.613" style="fill:rgb(53,171,87);"/>
                <path d="M1354.745,442.654C1436.676,442.654 1503.193,574.217 1503.193,736.266C1503.193,898.316 1436.676,1029.879 1354.745,1029.879C1272.815,1029.879 1206.297,898.316 1206.297,736.266C1206.297,574.217 1272.815,442.654 1354.745,442.654ZM1355.084,461.581C1327.863,461.581 1303.691,480.482 1283.284,510.077C1248.071,561.145 1225.726,643.697 1225.726,736.597C1225.726,829.384 1247.996,911.829 1283.166,962.833C1303.409,992.19 1327.405,1010.952 1354.406,1010.952C1381.627,1010.952 1405.799,992.051 1426.207,962.455C1461.42,911.388 1483.765,828.836 1483.765,735.936C1483.765,643.149 1461.494,560.704 1426.324,509.7C1406.081,480.343 1382.086,461.581 1355.084,461.581Z"/>
            </g>
            <g transform="matrix(0.984669,0,-0.017639,1.010559,-35.571171,31.811781)">
                <ellipse cx="1354.745" cy="736.266" rx="148.448" ry="293.613" style="fill:rgb(53,171,87);"/>
                <path d="M1354.745,442.654C1436.676,442.654 1503.193,574.217 1503.193,736.266C1503.193,898.316 1436.676,1029.879 1354.745,1029.879C1272.815,1029.879 1206.297,898.316 1206.297,736.266C1206.297,574.217 1272.815,442.654 1354.745,442.654ZM1355.084,461.581C1327.863,461.581 1303.691,480.482 1283.284,510.077C1248.071,561.145 1225.726,643.697 1225.726,736.597C1225.726,829.384 1247.996,911.829 1283.166,962.833C1303.409,992.19 1327.405,1010.952 1354.406,1010.952C1381.627,1010.952 1405.799,992.051 1426.207,962.455C1461.42,911.388 1483.765,828.836 1483.765,735.936C1483.765,643.149 1461.494,560.704 1426.324,509.7C1406.081,480.343 1382.086,461.581 1355.084,461.581Z"/>
            </g>
        </g>
        <g transform="matrix(1.044337,0,-0.060041,1.145652,-54.470897,-77.579759)">
            <ellipse cx="1354.745" cy="736.266" rx="148.448" ry="293.613" style="fill:rgb(164,164,162);"/>
            <path d="M1354.745,442.654C1436.676,442.654 1503.193,574.217 1503.193,736.266C1503.193,898.316 1436.676,1029.879 1354.745,1029.879C1272.815,1029.879 1206.297,898.316 1206.297,736.266C1206.297,574.217 1272.815,442.654 1354.745,442.654ZM1355.897,462.688C1329.192,462.688 1305.933,481.576 1285.912,510.612C1250.671,561.721 1228.306,644.339 1228.306,737.315C1228.306,829.964 1250.449,912.267 1285.566,963.196C1305.02,991.409 1327.644,1009.845 1353.593,1009.845C1380.299,1009.845 1403.557,990.957 1423.578,961.921C1458.82,910.812 1481.184,828.194 1481.184,735.218C1481.184,642.569 1459.042,560.266 1423.924,509.337C1404.47,481.124 1381.846,462.688 1355.897,462.688Z"/>
        </g>
        <path d="M1214.139,740.826L1263.128,748.602C1262.497,754.275 1262.022,760.057 1261.714,765.926C1260.216,794.501 1262.909,821.023 1268.73,842.895C1278.154,878.308 1295.781,901.528 1317.104,901.528C1335.012,901.528 1352.029,885.149 1364.802,858.925L1401.55,912.234C1390.835,972.928 1343.247,1055.805 1299.615,1041.901C1258.323,1028.743 1225.084,948.352 1215.456,884.551C1208.422,837.943 1204.281,783.874 1214.139,740.826Z" style="fill:white;stroke:black;stroke-width:19.13px;stroke-linecap:butt;stroke-miterlimit:2;"/>
        <g>
            <path d="M1214.139,740.826C1204.281,783.874 1208.422,837.943 1215.456,884.551C1225.084,948.352 1258.323,1028.743 1299.615,1041.901C1343.247,1055.805 1390.835,972.928 1401.55,912.234" style="fill:none;stroke:black;stroke-width:19.13px;"/>
            <g transform="matrix(0.403125,0,0,0.403125,793.644152,457.161745)">
                <g transform="matrix(1.044337,0,-0.060041,1.145652,-54.470897,-77.579759)">
                    <ellipse cx="1354.745" cy="736.266" rx="148.448" ry="293.613" style="fill:rgb(164,164,162);"/>
                    <path d="M1354.745,442.654C1436.676,442.654 1503.193,574.217 1503.193,736.266C1503.193,898.316 1436.676,1029.879 1354.745,1029.879C1272.815,1029.879 1206.297,898.316 1206.297,736.266C1206.297,574.217 1272.815,442.654 1354.745,442.654ZM1357.126,484.069C1336.863,484.069 1321.183,500.615 1305.991,522.646C1272.47,571.26 1251.794,649.997 1251.794,738.434C1251.794,826.195 1272.011,904.28 1305.276,952.522C1319.303,972.865 1333.654,988.464 1352.364,988.464C1372.627,988.464 1388.308,971.918 1403.499,949.887C1437.02,901.273 1457.697,822.536 1457.697,734.099C1457.697,646.338 1437.479,568.253 1404.214,520.011C1390.187,499.668 1375.837,484.069 1357.126,484.069Z"/>
                </g>
            </g>
            <g>
                <path d="M1332.723,638.044L1342.709,512.865" style="fill:none;stroke:black;stroke-width:19.13px;"/>
                <path d="M1271.585,749.944L1214.139,740.826" style="fill:none;stroke:black;stroke-width:19.13px;"/>
                <path d="M1387.114,772.379L1434.327,781.496" style="fill:none;stroke:black;stroke-width:19.13px;"/>
                <path d="M1287.281,677.076L1237.364,620.233" style="fill:none;stroke:black;stroke-width:19.13px;"/>
                <path d="M1372.8,695.234L1425.063,638.044" style="fill:none;stroke:black;stroke-width:19.13px;"/>
                <path d="M1316.133,901.528L1303.5,1030.846" style="fill:none;stroke:black;stroke-width:19.13px;"/>
                <path d="M1361.902,854.717L1401.55,912.234" style="fill:none;stroke:black;stroke-width:19.13px;"/>
                <path d="M1273.409,839.223L1218.698,882.161" style="fill:none;stroke:black;stroke-width:19.13px;"/>
                <g transform="matrix(0.248793,0,0,0.248793,996.765972,575.368813)">
                    <g transform="matrix(1.044337,0,-0.060041,1.145652,-54.470897,-77.579759)">
                        <ellipse cx="1354.745" cy="736.266" rx="148.448" ry="293.613" style="fill:rgb(9,57,95);"/>
                        <path d="M1354.745,442.654C1436.676,442.654 1503.193,574.217 1503.193,736.266C1503.193,898.316 1436.676,1029.879 1354.745,1029.879C1272.815,1029.879 1206.297,898.316 1206.297,736.266C1206.297,574.217 1272.815,442.654 1354.745,442.654ZM1358.603,509.761C1354.981,509.761 1352.589,512.844 1349.424,515.379C1342.438,520.973 1336.112,528.415 1330.118,537.107C1298.663,582.723 1280.016,656.794 1280.016,739.779C1280.016,809.481 1293.374,872.745 1316.49,918.466C1323.631,932.591 1331.501,944.757 1340.549,954.038C1344.266,957.852 1346.413,962.772 1350.887,962.772C1354.51,962.772 1356.901,959.689 1360.066,957.154C1367.052,951.56 1373.379,944.118 1379.372,935.426C1410.827,889.81 1429.474,815.739 1429.474,732.754C1429.474,663.052 1416.116,599.788 1393.001,554.067C1385.859,539.942 1377.989,527.776 1368.942,518.495C1365.224,514.681 1363.077,509.761 1358.603,509.761Z"/>
                    </g>
                </g>
            </g>
        </g>
    </g>
    <g transform="matrix(1.188737,0,0,1.188737,-657.145957,-158.73621)">
        <g>
            <g transform="matrix(1.024956,0,-0.058007,1.106832,-233.99317,-63.396005)">
                <ellipse cx="1354.745" cy="736.266" rx="148.448" ry="293.613" style="fill:rgb(9,59,96);"/>
                <path d="M1354.745,442.654C1436.676,442.654 1503.193,574.217 1503.193,736.266C1503.193,898.316 1436.676,1029.879 1354.745,1029.879C1272.815,1029.879 1206.297,898.316 1206.297,736.266C1206.297,574.217 1272.815,442.654 1354.745,442.654ZM1355.462,455.321C1326.466,455.321 1300.498,475.01 1278.759,506.536C1242.936,558.488 1219.995,642.419 1219.995,736.929C1219.995,831.228 1242.793,914.957 1278.536,966.793C1299.922,997.807 1325.502,1017.212 1354.028,1017.212C1383.025,1017.212 1408.993,997.523 1430.731,965.997C1466.555,914.045 1489.495,830.114 1489.495,735.604C1489.495,641.305 1466.697,557.576 1430.954,505.74C1409.568,474.726 1383.988,455.321 1355.462,455.321Z"/>
            </g>
        </g>
        <g>
            <g transform="matrix(0.984669,0,-0.017639,1.010559,-185.014575,24.811781)">
                <ellipse cx="1354.745" cy="736.266" rx="148.448" ry="293.613" style="fill:rgb(53,171,87);"/>
                <path d="M1354.745,442.654C1436.676,442.654 1503.193,574.217 1503.193,736.266C1503.193,898.316 1436.676,1029.879 1354.745,1029.879C1272.815,1029.879 1206.297,898.316 1206.297,736.266C1206.297,574.217 1272.815,442.654 1354.745,442.654ZM1354.994,456.528C1326.292,456.528 1300.48,476.003 1278.962,507.209C1243.311,558.912 1220.538,642.453 1220.538,736.509C1220.538,830.482 1243.256,913.944 1278.876,965.601C1300.273,996.632 1325.956,1016.005 1354.497,1016.005C1383.198,1016.005 1409.011,996.53 1430.528,965.324C1466.179,913.621 1488.952,830.08 1488.952,736.024C1488.952,642.051 1466.234,558.589 1430.615,506.932C1409.218,475.901 1383.535,456.528 1354.994,456.528Z"/>
            </g>
            <g transform="matrix(0.984669,0,-0.017639,1.010559,-158.571171,25.811781)">
                <ellipse cx="1354.745" cy="736.266" rx="148.448" ry="293.613" style="fill:rgb(53,171,87);"/>
                <path d="M1354.745,442.654C1436.676,442.654 1503.193,574.217 1503.193,736.266C1503.193,898.316 1436.676,1029.879 1354.745,1029.879C1272.815,1029.879 1206.297,898.316 1206.297,736.266C1206.297,574.217 1272.815,442.654 1354.745,442.654ZM1354.994,456.528C1326.292,456.528 1300.48,476.003 1278.962,507.209C1243.311,558.912 1220.538,642.453 1220.538,736.509C1220.538,830.482 1243.256,913.944 1278.876,965.601C1300.273,996.632 1325.956,1016.005 1354.497,1016.005C1383.198,1016.005 1409.011,996.53 1430.528,965.324C1466.179,913.621 1488.952,830.08 1488.952,736.024C1488.952,642.051 1466.234,558.589 1430.615,506.932C1409.218,475.901 1383.535,456.528 1354.994,456.528Z"/>
            </g>
            <g transform="matrix(0.984669,0,-0.017639,1.010559,-128.571171,27.811781)">
                <ellipse cx="1354.745" cy="736.266" rx="148.448" ry="293.613" style="fill:rgb(53,171,87);"/>
                <path d="M1354.745,442.654C1436.676,442.654 1503.193,574.217 1503.193,736.266C1503.193,898.316 1436.676,1029.879 1354.745,1029.879C1272.815,1029.879 1206.297,898.316 1206.297,736.266C1206.297,574.217 1272.815,442.654 1354.745,442.654ZM1354.994,456.528C1326.292,456.528 1300.48,476.003 1278.962,507.209C1243.311,558.912 1220.538,642.453 1220.538,736.509C1220.538,830.482 1243.256,913.944 1278.876,965.601C1300.273,996.632 1325.956,1016.005 1354.497,1016.005C1383.198,1016.005 1409.011,996.53 1430.528,965.324C1466.179,913.621 1488.952,830.08 1488.952,736.024C1488.952,642.051 1466.234,558.589 1430.615,506.932C1409.218,475.901 1383.535,456.528 1354.994,456.528Z"/>
            </g>
            <g transform="matrix(0.984669,0,-0.017639,1.010559,-101.571171,29.811781)">
                <ellipse cx="1354.745" cy="736.266" rx="148.448" ry="293.613" style="fill:rgb(53,171,87);"/>
                <path d="M1354.745,442.654C1436.676,442.654 1503.193,574.217 1503.193,736.266C1503.193,898.316 1436.676,1029.879 1354.745,1029.879C1272.815,1029.879 1206.297,898.316 1206.297,736.266C1206.297,574.217 1272.815,442.654 1354.745,442.654ZM1354.994,456.528C1326.292,456.528 1300.48,476.003 1278.962,507.209C1243.311,558.912 1220.538,642.453 1220.538,736.509C1220.538,830.482 1243.256,913.944 1278.876,965.601C1300.273,996.632 1325.956,1016.005 1354.497,1016.005C1383.198,1016.005 1409.011,996.53 1430.528,965.324C1466.179,913.621 1488.952,830.08 1488.952,736.024C1488.952,642.051 1466.234,558.589 1430.615,506.932C1409.218,475.901 1383.535,456.528 1354.994,456.528Z"/>
            </g>
            <g transform="matrix(0.984669,0,-0.017639,1.010559,-70.571171,30.811781)">
                <ellipse cx="1354.745" cy="736.266" rx="148.448" ry="293.613" style="fill:rgb(53,171,87);"/>
                <path d="M1354.745,442.654C1436.676,442.654 1503.193,574.217 1503.193,736.266C1503.193,898.316 1436.676,1029.879 1354.745,1029.879C1272.815,1029.879 1206.297,898.316 1206.297,736.266C1206.297,574.217 1272.815,442.654 1354.745,442.654ZM1354.994,456.528C1326.292,456.528 1300.48,476.003 1278.962,507.209C1243.311,558.912 1220.538,642.453 1220.538,736.509C1220.538,830.482 1243.256,913.944 1278.876,965.601C1300.273,996.632 1325.956,1016.005 1354.497,1016.005C1383.198,1016.005 1409.011,996.53 1430.528,965.324C1466.179,913.621 1488.952,830.08 1488.952,736.024C1488.952,642.051 1466.234,558.589 1430.615,506.932C1409.218,475.901 1383.535,456.528 1354.994,456.528Z"/>
            </g>
            <g transform="matrix(0.984669,0,-0.017639,1.010559,-35.571171,31.811781)">
                <ellipse cx="1354.745" cy="736.266" rx="148.448" ry="293.613" style="fill:rgb(53,171,87);"/>
                <path d="M1354.745,442.654C1436.676,442.654 1503.193,574.217 1503.193,736.266C1503.193,898.316 1436.676,1029.879 1354.745,1029.879C1272.815,1029.879 1206.297,898.316 1206.297,736.266C1206.297,574.217 1272.815,442.654 1354.745,442.654ZM1354.994,456.528C1326.292,456.528 1300.48,476.003 1278.962,507.209C1243.311,558.912 1220.538,642.453 1220.538,736.509C1220.538,830.482 1243.256,913.944 1278.876,965.601C1300.273,996.632 1325.956,1016.005 1354.497,1016.005C1383.198,1016.005 1409.011,996.53 1430.528,965.324C1466.179,913.621 1488.952,830.08 1488.952,736.024C1488.952,642.051 1466.234,558.589 1430.615,506.932C1409.218,475.901 1383.535,456.528 1354.994,456.528Z"/>
            </g>
        </g>
        <g transform="matrix(1.044337,0,-0.060041,1.145652,-54.470897,-77.579759)">
            <ellipse cx="1354.745" cy="736.266" rx="148.448" ry="293.613" style="fill:rgb(164,164,162);"/>
            <path d="M1354.745,442.654C1436.676,442.654 1503.193,574.217 1503.193,736.266C1503.193,898.316 1436.676,1029.879 1354.745,1029.879C1272.815,1029.879 1206.297,898.316 1206.297,736.266C1206.297,574.217 1272.815,442.654 1354.745,442.654ZM1355.625,457.951C1327.487,457.951 1302.559,477.352 1281.463,507.945C1245.841,559.607 1223.102,643.085 1223.102,737.067C1223.102,830.799 1245.671,914.037 1281.199,965.561C1301.861,995.525 1326.306,1014.582 1353.866,1014.582C1382.004,1014.582 1406.932,995.181 1428.027,964.588C1463.65,912.926 1486.388,829.448 1486.388,735.466C1486.388,641.734 1463.819,558.496 1428.291,506.972C1407.629,477.008 1383.185,457.951 1355.625,457.951Z"/>
        </g>
        <path d="M1214.139,740.826L1263.128,748.602C1262.497,754.275 1262.022,760.057 1261.714,765.926C1260.216,794.501 1262.909,821.023 1268.73,842.895C1278.154,878.308 1295.781,901.528 1317.104,901.528C1335.012,901.528 1352.029,885.149 1364.802,858.925L1401.55,912.234C1390.835,972.928 1343.247,1055.805 1299.615,1041.901C1258.323,1028.743 1225.084,948.352 1215.456,884.551C1208.422,837.943 1204.281,783.874 1214.139,740.826Z" style="fill:white;stroke:white;stroke-width:14.02px;stroke-linecap:butt;stroke-miterlimit:2;"/>
        <g>
            <path d="M1214.139,740.826C1204.281,783.874 1208.422,837.943 1215.456,884.551C1225.084,948.352 1258.323,1028.743 1299.615,1041.901C1343.247,1055.805 1390.835,972.928 1401.55,912.234" style="fill:none;stroke:black;stroke-width:14.02px;"/>
            <g transform="matrix(0.403125,0,0,0.403125,793.644152,457.161745)">
                <g transform="matrix(1.044337,0,-0.060041,1.145652,-54.470897,-77.579759)">
                    <ellipse cx="1354.745" cy="736.266" rx="148.448" ry="293.613" style="fill:rgb(164,164,162);"/>
                    <path d="M1354.745,442.654C1436.676,442.654 1503.193,574.217 1503.193,736.266C1503.193,898.316 1436.676,1029.879 1354.745,1029.879C1272.815,1029.879 1206.297,898.316 1206.297,736.266C1206.297,574.217 1272.815,442.654 1354.745,442.654ZM1356.927,480.601C1335.622,480.601 1318.706,497.53 1302.734,520.694C1268.933,569.713 1247.983,649.079 1247.983,738.252C1247.983,826.807 1268.513,905.576 1302.079,954.254C1316.982,975.868 1332.684,991.932 1352.564,991.932C1373.868,991.932 1390.784,975.003 1406.757,951.839C1440.557,902.82 1461.507,823.454 1461.507,734.28C1461.507,645.726 1440.977,566.957 1407.412,518.279C1392.508,496.665 1376.807,480.601 1356.927,480.601Z"/>
                </g>
            </g>
            <g>
                <path d="M1332.723,638.044L1342.709,512.865" style="fill:none;stroke:black;stroke-width:14.02px;"/>
                <path d="M1271.585,749.944L1214.139,740.826" style="fill:none;stroke:black;stroke-width:14.02px;"/>
                <path d="M1387.114,772.379L1434.327,781.496" style="fill:none;stroke:black;stroke-width:14.02px;"/>
                <path d="M1287.281,677.076L1237.364,620.233" style="fill:none;stroke:black;stroke-width:14.02px;"/>
                <path d="M1372.8,695.234L1425.063,638.044" style="fill:none;stroke:black;stroke-width:14.02px;"/>
                <path d="M1316.133,901.528L1303.5,1030.846" style="fill:none;stroke:black;stroke-width:14.02px;"/>
                <path d="M1361.902,854.717L1401.55,912.234" style="fill:none;stroke:black;stroke-width:14.02px;"/>
                <path d="M1273.409,839.223L1218.698,882.161" style="fill:none;stroke:black;stroke-width:14.02px;"/>
                <g transform="matrix(0.248793,0,0,0.248793,996.765972,575.368813)">
                    <g transform="matrix(1.044337,0,-0.060041,1.145652,-54.470897,-77.579759)">
                        <ellipse cx="1354.745" cy="736.266" rx="148.448" ry="293.613" style="fill:rgb(9,57,95);"/>
                        <path d="M1354.745,442.654C1436.676,442.654 1503.193,574.217 1503.193,736.266C1503.193,898.316 1436.676,1029.879 1354.745,1029.879C1272.815,1029.879 1206.297,898.316 1206.297,736.266C1206.297,574.217 1272.815,442.654 1354.745,442.654ZM1357.573,491.843C1339.637,491.843 1326.738,507.521 1313.291,527.022C1280.396,574.729 1260.333,652.054 1260.333,738.841C1260.333,824.825 1279.85,901.376 1312.442,948.641C1324.513,966.147 1335.816,980.69 1351.917,980.69C1369.853,980.69 1382.752,965.012 1396.199,945.511C1429.095,897.804 1449.157,820.479 1449.157,733.692C1449.157,647.708 1429.64,571.157 1397.048,523.892C1384.977,506.386 1373.674,491.843 1357.573,491.843Z"/>
                    </g>
                </g>
            </g>
        </g>
    </g>
    <g>
        <g>
            <g transform="matrix(1.024956,0,-0.058007,1.106832,-233.99317,-63.396005)">
                <ellipse cx="1354.745" cy="736.266" rx="148.448" ry="293.613" style="fill:rgb(9,59,96);"/>
                <path d="M1354.745,442.654C1436.676,442.654 1503.193,574.217 1503.193,736.266C1503.193,898.316 1436.676,1029.879 1354.745,1029.879C1272.815,1029.879 1206.297,898.316 1206.297,736.266C1206.297,574.217 1272.815,442.654 1354.745,442.654ZM1355.597,457.712C1327.313,457.712 1302.165,477.143 1280.96,507.895C1245.331,559.565 1222.581,643.057 1222.581,737.055C1222.581,830.8 1245.162,914.052 1280.695,965.584C1301.481,995.728 1326.167,1014.821 1353.893,1014.821C1382.178,1014.821 1407.325,995.39 1428.53,964.638C1464.159,912.968 1486.91,829.476 1486.91,735.478C1486.91,641.733 1464.328,558.481 1428.795,506.949C1408.009,476.805 1383.323,457.712 1355.597,457.712Z"/>
            </g>
        </g>
        <g>
            <g transform="matrix(0.984669,0,-0.017639,1.010559,-185.014575,24.811781)">
                <ellipse cx="1354.745" cy="736.266" rx="148.448" ry="293.613" style="fill:rgb(231,42,46);"/>
                <path d="M1354.745,442.654C1436.676,442.654 1503.193,574.217 1503.193,736.266C1503.193,898.316 1436.676,1029.879 1354.745,1029.879C1272.815,1029.879 1206.297,898.316 1206.297,736.266C1206.297,574.217 1272.815,442.654 1354.745,442.654ZM1354.967,455.023C1325.824,455.023 1299.524,474.67 1277.675,506.355C1241.894,558.247 1218.994,642.082 1218.994,736.482C1218.994,830.809 1241.845,914.574 1277.598,966.425C1299.339,997.954 1325.524,1017.51 1354.524,1017.51C1383.667,1017.51 1409.967,997.863 1431.815,966.178C1467.597,914.286 1490.496,830.451 1490.496,736.051C1490.496,641.724 1467.645,557.959 1431.892,506.108C1410.151,474.579 1383.966,455.023 1354.967,455.023Z"/>
            </g>
            <g transform="matrix(0.984669,0,-0.017639,1.010559,-158.571171,25.811781)">
                <ellipse cx="1354.745" cy="736.266" rx="148.448" ry="293.613" style="fill:rgb(231,42,46);"/>
                <path d="M1354.745,442.654C1436.676,442.654 1503.193,574.217 1503.193,736.266C1503.193,898.316 1436.676,1029.879 1354.745,1029.879C1272.815,1029.879 1206.297,898.316 1206.297,736.266C1206.297,574.217 1272.815,442.654 1354.745,442.654ZM1354.967,455.023C1325.824,455.023 1299.524,474.67 1277.675,506.355C1241.894,558.247 1218.994,642.082 1218.994,736.482C1218.994,830.809 1241.845,914.574 1277.598,966.425C1299.339,997.954 1325.524,1017.51 1354.524,1017.51C1383.667,1017.51 1409.967,997.863 1431.815,966.178C1467.597,914.286 1490.496,830.451 1490.496,736.051C1490.496,641.724 1467.645,557.959 1431.892,506.108C1410.151,474.579 1383.966,455.023 1354.967,455.023Z"/>
            </g>
            <g transform="matrix(0.984669,0,-0.017639,1.010559,-128.571171,27.811781)">
                <ellipse cx="1354.745" cy="736.266" rx="148.448" ry="293.613" style="fill:rgb(231,42,46);"/>
                <path d="M1354.745,442.654C1436.676,442.654 1503.193,574.217 1503.193,736.266C1503.193,898.316 1436.676,1029.879 1354.745,1029.879C1272.815,1029.879 1206.297,898.316 1206.297,736.266C1206.297,574.217 1272.815,442.654 1354.745,442.654ZM1354.967,455.023C1325.824,455.023 1299.524,474.67 1277.675,506.355C1241.894,558.247 1218.994,642.082 1218.994,736.482C1218.994,830.809 1241.845,914.574 1277.598,966.425C1299.339,997.954 1325.524,1017.51 1354.524,1017.51C1383.667,1017.51 1409.967,997.863 1431.815,966.178C1467.597,914.286 1490.496,830.451 1490.496,736.051C1490.496,641.724 1467.645,557.959 1431.892,506.108C1410.151,474.579 1383.966,455.023 1354.967,455.023Z"/>
            </g>
            <g transform="matrix(0.984669,0,-0.017639,1.010559,-101.571171,29.811781)">
                <ellipse cx="1354.745" cy="736.266" rx="148.448" ry="293.613" style="fill:rgb(231,42,46);"/>
                <path d="M1354.745,442.654C1436.676,442.654 1503.193,574.217 1503.193,736.266C1503.193,898.316 1436.676,1029.879 1354.745,1029.879C1272.815,1029.879 1206.297,898.316 1206.297,736.266C1206.297,574.217 1272.815,442.654 1354.745,442.654ZM1354.967,455.023C1325.824,455.023 1299.524,474.67 1277.675,506.355C1241.894,558.247 1218.994,642.082 1218.994,736.482C1218.994,830.809 1241.845,914.574 1277.598,966.425C1299.339,997.954 1325.524,1017.51 1354.524,1017.51C1383.667,1017.51 1409.967,997.863 1431.815,966.178C1467.597,914.286 1490.496,830.451 1490.496,736.051C1490.496,641.724 1467.645,557.959 1431.892,506.108C1410.151,474.579 1383.966,455.023 1354.967,455.023Z"/>
            </g>
            <g transform="matrix(0.984669,0,-0.017639,1.010559,-70.571171,30.811781)">
                <ellipse cx="1354.745" cy="736.266" rx="148.448" ry="293.613" style="fill:rgb(231,42,46);"/>
                <path d="M1354.745,442.654C1436.676,442.654 1503.193,574.217 1503.193,736.266C1503.193,898.316 1436.676,1029.879 1354.745,1029.879C1272.815,1029.879 1206.297,898.316 1206.297,736.266C1206.297,574.217 1272.815,442.654 1354.745,442.654ZM1354.967,455.023C1325.824,455.023 1299.524,474.67 1277.675,506.355C1241.894,558.247 1218.994,642.082 1218.994,736.482C1218.994,830.809 1241.845,914.574 1277.598,966.425C1299.339,997.954 1325.524,1017.51 1354.524,1017.51C1383.667,1017.51 1409.967,997.863 1431.815,966.178C1467.597,914.286 1490.496,830.451 1490.496,736.051C1490.496,641.724 1467.645,557.959 1431.892,506.108C1410.151,474.579 1383.966,455.023 1354.967,455.023Z"/>
            </g>
            <g transform="matrix(0.984669,0,-0.017639,1.010559,-35.571171,31.811781)">
                <ellipse cx="1354.745" cy="736.266" rx="148.448" ry="293.613" style="fill:rgb(231,42,46);"/>
                <path d="M1354.745,442.654C1436.676,442.654 1503.193,574.217 1503.193,736.266C1503.193,898.316 1436.676,1029.879 1354.745,1029.879C1272.815,1029.879 1206.297,898.316 1206.297,736.266C1206.297,574.217 1272.815,442.654 1354.745,442.654ZM1354.967,455.023C1325.824,455.023 1299.524,474.67 1277.675,506.355C1241.894,558.247 1218.994,642.082 1218.994,736.482C1218.994,830.809 1241.845,914.574 1277.598,966.425C1299.339,997.954 1325.524,1017.51 1354.524,1017.51C1383.667,1017.51 1409.967,997.863 1431.815,966.178C1467.597,914.286 1490.496,830.451 1490.496,736.051C1490.496,641.724 1467.645,557.959 1431.892,506.108C1410.151,474.579 1383.966,455.023 1354.967,455.023Z"/>
            </g>
        </g>
        <g transform="matrix(1.044337,0,-0.060041,1.145652,-54.470897,-77.579759)">
            <ellipse cx="1354.745" cy="736.266" rx="148.448" ry="293.613" style="fill:rgb(164,164,162);"/>
            <path d="M1354.745,442.654C1436.676,442.654 1503.193,574.217 1503.193,736.266C1503.193,898.316 1436.676,1029.879 1354.745,1029.879C1272.815,1029.879 1206.297,898.316 1206.297,736.266C1206.297,574.217 1272.815,442.654 1354.745,442.654ZM1355.791,460.838C1328.526,460.838 1304.615,479.927 1284.175,509.57C1248.784,560.895 1226.274,643.849 1226.274,737.218C1226.274,830.29 1248.583,912.958 1283.861,964.12C1303.786,993.016 1327.122,1011.695 1353.7,1011.695C1380.965,1011.695 1404.875,992.606 1425.316,962.963C1460.706,911.638 1483.217,828.684 1483.217,735.315C1483.217,642.243 1460.908,559.575 1425.63,508.413C1405.704,479.517 1382.369,460.838 1355.791,460.838Z"/>
        </g>
        <path d="M1214.139,740.826L1263.128,748.602C1262.497,754.275 1262.022,760.057 1261.714,765.926C1260.216,794.501 1262.909,821.023 1268.73,842.895C1278.154,878.308 1295.781,901.528 1317.104,901.528C1335.012,901.528 1352.029,885.149 1364.802,858.925L1401.55,912.234C1390.835,972.928 1343.247,1055.805 1299.615,1041.901C1258.323,1028.743 1225.084,948.352 1215.456,884.551C1208.422,837.943 1204.281,783.874 1214.139,740.826Z" style="fill:white;"/>
        <g>
            <path d="M1214.139,740.826C1204.281,783.874 1208.422,837.943 1215.456,884.551C1225.084,948.352 1258.323,1028.743 1299.615,1041.901C1343.247,1055.805 1390.835,972.928 1401.55,912.234" style="fill:none;stroke:black;stroke-width:16.67px;"/>
            <g transform="matrix(0.403125,0,0,0.403125,793.644152,457.161745)">
                <g transform="matrix(1.044337,0,-0.060041,1.145652,-54.470897,-77.579759)">
                    <ellipse cx="1354.745" cy="736.266" rx="148.448" ry="293.613" style="fill:rgb(164,164,162);"/>
                    <path d="M1354.745,442.654C1436.676,442.654 1503.193,574.217 1503.193,736.266C1503.193,898.316 1436.676,1029.879 1354.745,1029.879C1272.815,1029.879 1206.297,898.316 1206.297,736.266C1206.297,574.217 1272.815,442.654 1354.745,442.654ZM1356.82,478.741C1334.956,478.741 1317.379,495.876 1300.987,519.647C1267.037,568.883 1245.94,648.587 1245.94,738.155C1245.94,827.134 1266.637,906.27 1300.364,955.182C1315.739,977.479 1332.163,993.792 1352.67,993.792C1374.535,993.792 1392.112,976.657 1408.503,952.886C1442.453,903.65 1463.55,823.946 1463.55,734.378C1463.55,645.399 1442.853,566.263 1409.126,517.351C1393.752,495.054 1377.328,478.741 1356.82,478.741Z"/>
                </g>
            </g>
            <g>
                <path d="M1332.723,638.044L1342.709,512.865" style="fill:none;stroke:black;stroke-width:16.67px;"/>
                <path d="M1271.585,749.944L1214.139,740.826" style="fill:none;stroke:black;stroke-width:16.67px;"/>
                <path d="M1387.114,772.379L1434.327,781.496" style="fill:none;stroke:black;stroke-width:16.67px;"/>
                <path d="M1287.281,677.076L1237.364,620.233" style="fill:none;stroke:black;stroke-width:16.67px;"/>
                <path d="M1372.8,695.234L1425.063,638.044" style="fill:none;stroke:black;stroke-width:16.67px;"/>
                <path d="M1316.133,901.528L1303.5,1030.846" style="fill:none;stroke:black;stroke-width:16.67px;"/>
                <path d="M1361.902,854.717L1401.55,912.234" style="fill:none;stroke:black;stroke-width:16.67px;"/>
                <path d="M1273.409,839.223L1218.698,882.161" style="fill:none;stroke:black;stroke-width:16.67px;"/>
                <g transform="matrix(0.248793,0,0,0.248793,996.765972,575.368813)">
                    <g transform="matrix(1.044337,0,-0.060041,1.145652,-54.470897,-77.579759)">
                        <ellipse cx="1354.745" cy="736.266" rx="148.448" ry="293.613" style="fill:rgb(9,57,95);"/>
                        <path d="M1354.745,442.654C1436.676,442.654 1503.193,574.217 1503.193,736.266C1503.193,898.316 1436.676,1029.879 1354.745,1029.879C1272.815,1029.879 1206.297,898.316 1206.297,736.266C1206.297,574.217 1272.815,442.654 1354.745,442.654ZM1358.107,501.127C1352.445,501.127 1347.9,504.805 1342.953,508.768C1335.392,514.822 1328.497,522.84 1322.01,532.247C1289.861,578.871 1270.532,654.51 1270.532,739.327C1270.532,823.19 1289.213,897.907 1321,944.007C1326.936,952.615 1333.187,959.989 1340.105,965.529C1343.79,968.48 1347.167,971.406 1351.383,971.406C1357.046,971.406 1361.59,967.728 1366.538,963.765C1374.098,957.711 1380.993,949.693 1387.48,940.286C1419.629,893.662 1438.959,818.023 1438.959,733.206C1438.959,649.343 1420.278,574.626 1388.49,528.526C1382.554,519.918 1376.303,512.544 1369.385,507.004C1365.701,504.053 1362.324,501.127 1358.107,501.127Z"/>
                    </g>
                </g>
            </g>
        </g>
    </g>
    <g>
        <path d="M1775.44,1152.613C1771.008,1158.097 1766.467,1163.382 1761.852,1168.399C1548.393,1197.437 960.346,1244.149 728.145,1233.627C576.386,1226.75 422.475,1185.319 350.234,1166.17C347.655,1116.721 271.667,984.934 265.419,975.843C265.629,975.757 265.682,975.365 265.587,974.684C907.794,1075.767 1406.963,1133.84 1775.44,1152.613Z" style="fill:rgb(231,42,46);"/>
        <path d="M1761.852,1168.399C1743.818,1188.001 1724.64,1203.507 1706.348,1210.784C1626.369,1242.603 1132.729,1302.215 918.791,1327.173C742.904,1347.693 520.318,1367.33 391.352,1362.468C337.525,1360.439 310.565,1343.694 297.148,1324.511C290.559,1302.578 287.392,1272.674 299.481,1255.812C315.356,1233.669 348.695,1220.081 348.483,1178.723C349.974,1175.59 350.504,1171.328 350.234,1166.17C422.475,1185.319 576.386,1226.75 728.145,1233.627C960.346,1244.149 1548.393,1197.437 1761.852,1168.399Z" style="fill:rgb(9,57,95);"/>
        <path d="M254.082,972.871C252.303,969.806 250.501,966.709 248.678,963.58C197.893,876.409 88.566,743.181 54.986,668.223C53.214,664.268 52.269,660.592 52.041,657.192C67.322,644.796 89.857,634.283 108.568,634.964C162.509,748.137 263.146,957.155 265.587,974.684C261.757,974.081 257.922,973.477 254.082,972.871Z" style="fill:rgb(163,163,161);"/>
        <path d="M1843.907,1008.491C1845.209,1040.237 1814.574,1104.184 1775.44,1152.613C1406.963,1133.84 907.794,1075.767 265.587,974.684C263.146,957.155 162.509,748.137 108.568,634.964C109.874,635.011 111.162,635.113 112.428,635.273C228.298,649.917 432.341,688.396 733.696,761.644C772.163,829.57 823.034,888.037 846.444,903.57L1614.901,1043.513C1635.247,1034.427 1655.702,1010.136 1674.455,978.735L1843.907,1008.491Z" style="fill:rgb(163,163,161);"/>
        <g>
            <path d="M46.733,661.852C62.629,646.675 90.803,632.541 112.428,635.273C228.298,649.917 432.341,688.396 733.696,761.644C772.163,829.57 823.034,888.037 846.444,903.57L1614.901,1043.513C1635.247,1034.427 1655.702,1010.136 1674.455,978.735L1843.947,1008.498" style="fill:none;stroke:white;stroke-width:25px;stroke-linecap:butt;"/>
            <path d="M305.457,1344.852C295.142,1327.083 282.817,1279.056 299.481,1255.812C315.356,1233.669 348.695,1220.081 348.483,1178.723C364.266,1145.549 272.319,985.882 265.419,975.843C271.038,973.542 164.586,752.495 108.553,634.932" style="fill:none;stroke:white;stroke-width:16.67px;stroke-linecap:butt;"/>
            <path d="M341.209,1163.784C408.973,1181.619 569.731,1226.448 728.145,1233.627C965.759,1244.394 1576.005,1195.228 1776.161,1166.398" style="fill:none;stroke:black;stroke-width:20.83px;stroke-linejoin:miter;stroke-miterlimit:2;"/>
            <path d="M251.54,972.469C900.94,1074.986 1404.933,1133.779 1776.161,1152.65" style="fill:none;stroke:black;stroke-width:20.83px;stroke-linejoin:miter;stroke-miterlimit:2;"/>
            <path d="M1615.917,1014.25C1616.607,1013.899 1619.294,1012.505 1620.775,1011.323C1624.181,1008.603 1627.431,1005.062 1630.518,1001.242C1644.253,984.239 1654.401,961.753 1654.401,961.753C1657.085,955.829 1662.383,951.499 1668.723,950.046C1672.437,949.195 1676.259,949.389 1679.793,950.532C1680.413,950.668 1681.612,950.927 1682.655,951.136C1711.017,956.806 1845.989,979.454 1845.989,979.454C1853.692,980.747 1860.025,986.24 1862.393,993.683C1867.25,1008.947 1863.62,1035.821 1851.114,1066.407C1825.585,1128.848 1765.899,1209.514 1714.049,1230.142C1633.525,1262.178 1136.601,1322.738 921.205,1347.866C744.253,1368.51 520.314,1388.178 390.567,1383.287C334.762,1381.183 304.156,1364.096 286.852,1344.954C268.037,1324.142 263.845,1299.65 263.335,1282.023C262.534,1254.316 275.036,1236.568 289.88,1222.795C295.559,1217.526 301.571,1212.955 306.798,1208.499C309.492,1206.203 312.117,1204.278 313.395,1201.764C318.324,1192.066 320.965,1180.777 320.49,1169.908C320.148,1162.056 318.872,1152.44 316.693,1142.676C314.722,1133.846 312.02,1124.881 308.493,1117.058C293.258,1083.27 266.124,1034.91 230.677,974.067C179.576,886.353 69.763,752.165 35.973,676.741C16.683,633.681 54.847,605.461 102.295,604.715C203.207,603.13 638.762,705.775 727.731,729.288C738.401,732.108 744.858,734.169 746.4,734.86L752.886,739.296C754.074,740.484 755.114,741.811 755.984,743.25C784.631,790.641 810.311,828.397 831.994,852.157C842.879,864.086 851.52,872.543 859.418,874.338C874.519,877.172 1469.04,988.767 1615.917,1014.25ZM54.986,668.223C88.566,743.181 197.893,876.409 248.678,963.58C284.596,1025.232 312.047,1074.258 327.485,1108.494C331.569,1117.551 334.745,1127.916 337.026,1138.139C339.495,1149.203 340.916,1160.102 341.304,1169C341.932,1183.395 338.495,1198.36 331.967,1211.204C322.443,1229.941 282.982,1240.696 284.16,1281.421C284.961,1309.117 296.018,1358.875 391.352,1362.468C520.318,1367.33 742.904,1347.693 918.791,1327.173C1132.729,1302.215 1626.369,1242.603 1706.348,1210.784C1774.79,1183.555 1855.629,1041.133 1842.541,1000C1842.541,1000 1675.26,971.923 1673.376,970.353C1673.376,970.353 1641.859,1039.891 1613.02,1034.892C1465.344,1009.296 855.281,894.758 855.281,894.758C828.382,889.048 787.365,835.436 738.154,754.027C734.234,750.107 213.749,623.8 102.622,625.546C71.627,626.033 42.385,640.095 54.986,668.223Z"/>
        </g>
        <g>
            <g transform="matrix(1.067749,-0.366041,0.381302,1.112265,-347.333024,44.741512)">
                <ellipse cx="391.618" cy="842.334" rx="53.106" ry="65.361" style="fill:rgb(9,57,95);"/>
                <path d="M391.618,776.974C420.927,776.974 444.723,806.261 444.723,842.334C444.723,878.408 420.927,907.695 391.618,907.695C362.308,907.695 338.512,878.408 338.512,842.334C338.512,806.261 362.308,776.974 391.618,776.974ZM391.618,787.605C367.575,787.605 349.586,812.743 349.586,842.334C349.586,871.926 367.575,897.064 391.618,897.064C415.66,897.064 433.649,871.926 433.649,842.334C433.649,812.743 415.66,787.605 391.618,787.605Z"/>
            </g>
            <g transform="matrix(0.404248,-0.159818,0.184859,0.467588,75.869571,507.944891)">
                <ellipse cx="391.618" cy="842.334" rx="53.106" ry="65.361"/>
                <path d="M391.618,776.974C420.927,776.974 444.723,806.261 444.723,842.334C444.723,878.408 420.927,907.695 391.618,907.695C362.308,907.695 338.512,878.408 338.512,842.334C338.512,806.261 362.308,776.974 391.618,776.974ZM391.618,801.834C385.844,801.834 381.391,805.756 377.604,810.416C370.984,818.564 367.268,829.912 367.268,842.334C367.268,854.757 370.984,866.104 377.604,874.253C381.391,878.913 385.844,882.835 391.618,882.835C397.391,882.835 401.844,878.913 405.631,874.253C412.251,866.104 415.967,854.757 415.967,842.334C415.967,829.912 412.251,818.564 405.631,810.416C401.844,805.756 397.391,801.834 391.618,801.834Z"/>
            </g>
        </g>
    </g>
    <g>
        <path d="M1294.916,1275.753C1289.95,1279.683 1281.025,1284.308 1264.503,1290.49C1249.98,1295.923 1235.799,1300.35 1222.933,1304.742C1220.713,1305.5 1220.677,1304.804 1219.037,1303.131C1218.8,1302.89 1217.671,1301.739 1220.643,1299.225C1221.066,1298.868 1243.245,1288.858 1257.938,1281.401C1259.203,1280.759 1280.856,1269.982 1285.844,1263.836C1285.921,1263.741 1285.987,1263.656 1286.043,1263.579L1286.027,1263.574C1286.45,1262.805 1286.671,1261.935 1287.094,1261.165C1287.616,1260.216 1288.74,1259.378 1288.909,1259.252C1291.739,1257.141 1294.687,1257.781 1295.189,1257.89C1296.952,1258.273 1296.857,1258.524 1301.745,1261.125C1318.303,1269.935 1353.103,1286.372 1391.654,1284.638C1400.595,1284.236 1427.056,1282.952 1458.749,1262.638C1466.629,1257.587 1472.08,1253.166 1475.263,1250.677C1484.878,1243.159 1491.973,1236.15 1493.671,1234.515L1493.676,1234.511C1494.657,1233.791 1495.455,1232.842 1496.436,1232.123C1498.353,1230.72 1500.661,1230.11 1501.054,1230.006C1507.631,1228.267 1512.433,1231.543 1513.251,1232.101C1515.38,1233.553 1516.658,1235.309 1516.898,1235.637C1518.135,1237.337 1517.99,1237.422 1518.956,1239.293C1530.81,1262.252 1551.67,1271.264 1562.385,1275.348L1562.396,1275.352C1564.438,1276.226 1567.916,1277.887 1579.651,1281.556C1581.1,1282.009 1586.871,1283.813 1598.035,1286.276C1613.4,1289.664 1626.555,1290.753 1636.866,1291.594C1658.066,1293.324 1676.127,1292.653 1680.122,1292.581C1680.461,1292.575 1684.251,1292.507 1683.51,1295.115C1683.316,1295.799 1683.348,1296.596 1682.923,1297.167C1682.021,1298.376 1681.878,1298.253 1680.423,1298.647C1667.084,1302.263 1653.972,1304.794 1651.653,1305.242C1638.793,1307.725 1630.909,1308.56 1629.092,1308.752C1619.571,1309.759 1606.518,1310.795 1591.057,1310.211C1590.811,1310.202 1585.416,1309.913 1579.335,1309.188C1573.124,1308.447 1568.549,1307.777 1560.343,1305.674C1554.025,1304.055 1551.291,1302.997 1550.526,1302.701C1525.962,1293.194 1511.075,1279.841 1501.66,1267.454C1492.56,1275.172 1486.538,1279.108 1485.479,1279.832C1455.397,1300.405 1430.33,1305.5 1422.747,1306.95C1401.115,1311.087 1383.676,1309.903 1368.513,1307.208C1368.32,1307.174 1351.723,1304.481 1332.714,1296.344C1317.642,1289.891 1305.209,1282.574 1294.916,1275.753Z" style="fill:white;"/>
        <g transform="matrix(1,0,0,1,6.382901,19.604626)">
            <path d="M1705.655,1208.302C1705.321,1208.679 1704.973,1209.058 1704.61,1209.439C1703.486,1210.617 1699.249,1214.156 1695.023,1216.532C1687.237,1220.911 1680.315,1223.16 1674.672,1224.874C1663.465,1228.278 1654.299,1229.709 1651.585,1230.166C1639.913,1232.132 1628.731,1233.099 1625.115,1233.362C1623.839,1233.455 1623.898,1233.124 1623.136,1232.096C1623.09,1232.034 1623.14,1232.028 1623.231,1230.218C1623.621,1230.157 1624.02,1230.17 1624.41,1230.109C1624.687,1230.065 1629.771,1228.102 1630.236,1227.923C1639.075,1224.51 1648.579,1220.446 1661.047,1213.943C1663.352,1212.741 1670.956,1208.809 1679.306,1202.74C1682.286,1200.574 1685.806,1197.569 1687.665,1195.514C1688.39,1194.713 1688.355,1194.687 1689.086,1193.888C1689.437,1193.505 1689.843,1192.994 1689.974,1192.827C1689.987,1192.81 1689.998,1192.795 1690.007,1192.783C1691.162,1191.201 1691.412,1190.414 1691.391,1189.785C1691.371,1189.163 1691.303,1188.54 1691.339,1187.918C1691.382,1187.194 1691.629,1182.94 1695.588,1179.909C1696.164,1179.468 1699.547,1176.877 1704.428,1177.894C1708.241,1178.689 1710.316,1181.265 1710.684,1181.722C1710.838,1181.913 1711.29,1182.474 1712.309,1184.325C1714.889,1189.007 1717.738,1192.285 1723.548,1196.109L1723.548,1196.111C1724.651,1196.801 1728.412,1199.286 1735.021,1201.552C1741.492,1203.771 1746.771,1204.49 1749.75,1204.916L1749.753,1204.917C1755.173,1205.478 1760.203,1205.988 1771.574,1204.561C1782.415,1203.201 1794.512,1199.794 1796.472,1199.242C1802.098,1197.657 1803.623,1197.068 1811.323,1194.545C1815.217,1193.269 1822.523,1190.685 1822.991,1190.548C1824.033,1190.242 1826.908,1189.399 1835.933,1186.458C1837.064,1186.089 1841.941,1184.5 1849.953,1181.521C1853.038,1180.374 1853.13,1180.246 1853.477,1180.133C1855.934,1179.333 1858.034,1179.946 1858.413,1180.057C1859.69,1180.431 1859.63,1180.564 1860.792,1181.211C1867.424,1184.908 1883.304,1189.477 1900.502,1192.654C1909.508,1194.317 1917.015,1195.273 1917.064,1195.288C1917.451,1195.412 1917.942,1195.37 1918.222,1195.663C1918.232,1195.673 1918.685,1196.994 1918.681,1197.001C1918.513,1197.36 1918.455,1197.801 1918.169,1198.075C1917.515,1198.7 1917.433,1198.579 1916.533,1198.66C1911.799,1199.086 1890.145,1200.948 1872.806,1199.424C1865.152,1198.752 1860.483,1197.888 1857.374,1197.112C1853.996,1199.206 1849.096,1202.147 1840.695,1206.455C1839.327,1207.157 1831.25,1210.888 1829.71,1211.442C1819.002,1215.295 1813.429,1216.548 1806.542,1218.002C1785.732,1222.395 1769.263,1222.353 1760.998,1222.266C1760.507,1222.261 1760.508,1222.241 1754.858,1222.118C1751.357,1222.042 1745.09,1221.697 1740.445,1221.091C1732.894,1220.107 1718.193,1217.749 1705.655,1208.302Z" style="fill:white;"/>
        </g>
        <path d="M1772.208,1291.672C1759.664,1299.189 1749.653,1302.752 1749.078,1302.968C1743.421,1305.093 1734.465,1308.28 1719.394,1310.709C1711.26,1312.02 1705.068,1312.304 1698.534,1312.933C1698.121,1312.973 1696.773,1313.089 1696.62,1313.102L1697.433,1319.33L1695.212,1302.812L1696.065,1309.035C1696.373,1308.975 1704.3,1307.889 1718.249,1301.983C1720.017,1301.234 1728.391,1297.688 1739.502,1290.841C1740.334,1290.329 1743.945,1288.104 1749.664,1284.072C1750.265,1283.649 1753.169,1281.602 1757.02,1278.583C1761.181,1275.32 1764.227,1272.578 1764.747,1272.121L1764.746,1272.12C1765.781,1271.218 1765.777,1271.219 1766.81,1270.314C1767.442,1269.759 1771.411,1266.278 1777.105,1268.138C1778.755,1268.677 1779.925,1269.552 1780.145,1269.716C1780.536,1270.009 1783.945,1273.322 1788.489,1276.483C1789.673,1277.306 1792.559,1279.593 1798.004,1282.576C1799.06,1283.154 1800.61,1284.415 1806.654,1287.362L1806.653,1287.364C1806.799,1287.44 1811.934,1290.19 1821.119,1293.398C1821.504,1293.533 1835.25,1298.823 1860.153,1301.954C1873.704,1303.657 1885.362,1304 1885.512,1304.034C1886,1304.144 1886.6,1304.038 1886.976,1304.369C1886.987,1304.378 1887.687,1305.953 1887.684,1305.961C1887.516,1306.422 1887.494,1306.972 1887.17,1307.341C1886.47,1308.138 1886.372,1308.028 1885.329,1308.211C1859.647,1312.722 1843.506,1312.595 1839.851,1312.566C1818.892,1312.401 1807.424,1309.452 1798.944,1306.891C1796.646,1306.196 1792.923,1304.69 1792.406,1304.481C1788.477,1302.892 1786.962,1302.048 1786.509,1301.795C1786.498,1301.789 1780.922,1298.824 1775.257,1294.353C1774.868,1294.046 1773.633,1292.983 1772.208,1291.672Z" style="fill:white;"/>
        <g transform="matrix(1,0,0,1,-1.40059,0)">
            <path d="M1174.185,1306.085C1222.649,1300.333 1266.259,1286.49 1296.037,1249.594C1324.852,1269.436 1346.679,1275.724 1384.741,1277.139C1421.268,1278.497 1488.384,1248.675 1506.125,1224.85C1551.524,1283.014 1653.113,1292.091 1703.608,1286.009" style="fill:none;stroke:black;stroke-width:16.67px;"/>
        </g>
        <g transform="matrix(1,0,0,1,6.382901,19.604626)">
            <path d="M1616.641,1224.85C1647.201,1218.546 1676.235,1203.467 1703.608,1178.836C1737.462,1198.98 1773.317,1203.91 1811.155,1193.776" style="fill:none;stroke:black;stroke-width:16.67px;"/>
        </g>
    </g>
    <g>
        <path d="M989.257,1370.466C1081.996,1391.05 292.133,1412.492 402.904,1374.311C513.676,1336.13 607.696,1264.508 724.276,1259.768C819.194,1255.908 919.245,1354.925 989.257,1370.466Z" style="fill:rgb(231,209,162);"/>
        <path d="M901.824,1332.192C911.657,1343.254 757.135,1397.658 737.875,1396.933C723.957,1396.409 807.984,1404.691 832.204,1402.198C873.54,1397.943 985.896,1371.402 985.896,1371.402C955.915,1365.18 927.821,1352.357 901.824,1332.192Z" style="fill:rgb(172,149,118);stroke:rgb(172,149,118);stroke-width:16.67px;"/>
        <path d="M391.962,1374.311C502.733,1336.13 607.696,1264.508 724.276,1259.768C819.194,1255.908 919.245,1354.925 989.257,1370.466" style="fill:none;stroke:black;stroke-width:16.67px;"/>
    </g>
</svg>
